<svg width="125" height="129" viewBox="0 0 125 129" fill="none" xmlns="http://www.w3.org/2000/svg">
<g opacity="0.1">
<path d="M2.13605e-05 58.4415C2.21658e-05 44.0965 11.629 32.4675 25.974 32.4675L69.8052 32.4675C69.8052 32.4675 82.3819 48.0539 90.4406 58.041C90.4406 40.1293 90.4406 12.1753 90.4406 12.1753L125 -2.32477e-06L125 61.6883L125 102.694C125 117.039 113.371 128.668 99.0259 128.668L48.7012 128.668L25.974 128.668C11.629 128.668 1.80709e-05 117.039 1.88762e-05 102.694L2.13605e-05 58.4415ZM38.9158 58.041C33.917 58.041 29.8725 62.0933 29.8725 67.092L29.8725 93.7644C29.8725 98.7631 33.9248 102.815 38.9235 102.815L81.3895 102.815C86.3883 102.815 90.4406 98.7725 90.4406 93.7738C90.4406 84.2654 90.4406 69.1682 90.4406 58.041C74.0741 58.041 51.3584 58.041 38.9158 58.041Z" fill="#A2A2A2"/>
</g>
</svg>
