<svg width="96" height="96" viewBox="0 0 96 96" fill="none" xmlns="http://www.w3.org/2000/svg">
<rect width="96" height="96" rx="20.2971" fill="url(#paint0_linear_25_415)"/>
<g filter="url(#filter0_i_25_415)">
<path d="M18.2374 45.1939C18.2374 38.3627 23.7752 32.825 30.6063 32.825L51.4788 32.825L61.3054 45.0031L61.3054 23.1618L77.7627 17.3639L77.7627 46.74L77.7627 66.2672C77.7627 73.0984 72.2249 78.6361 65.3938 78.6361L41.429 78.6361L30.6063 78.6361C23.7752 78.6361 18.2374 73.0984 18.2374 66.2672L18.2374 45.1939ZM32.4628 45.0031L32.4628 66.3248L61.3054 66.3248L61.3054 45.0031L32.4628 45.0031Z" fill="url(#paint1_linear_25_415)"/>
</g>
<defs>
<filter id="filter0_i_25_415" x="18.2374" y="17.3639" width="60.1" height="62.7091" filterUnits="userSpaceOnUse" color-interpolation-filters="sRGB">
<feFlood flood-opacity="0" result="BackgroundImageFix"/>
<feBlend mode="normal" in="SourceGraphic" in2="BackgroundImageFix" result="shape"/>
<feColorMatrix in="SourceAlpha" type="matrix" values="0 0 0 0 0 0 0 0 0 0 0 0 0 0 0 0 0 0 127 0" result="hardAlpha"/>
<feOffset dx="0.574744" dy="1.43686"/>
<feGaussianBlur stdDeviation="1.43686"/>
<feComposite in2="hardAlpha" operator="arithmetic" k2="-1" k3="1"/>
<feColorMatrix type="matrix" values="0 0 0 0 0 0 0 0 0 0 0 0 0 0 0 0 0 0 0.25 0"/>
<feBlend mode="normal" in2="shape" result="effect1_innerShadow_25_415"/>
</filter>
<linearGradient id="paint0_linear_25_415" x1="44.2417" y1="-93.2983" x2="47.9516" y2="139.406" gradientUnits="userSpaceOnUse">
<stop offset="0.392807" stop-color="white"/>
<stop offset="1" stop-color="white"/>
</linearGradient>
<linearGradient id="paint1_linear_25_415" x1="53.41" y1="41.6744" x2="67.4757" y2="93.2872" gradientUnits="userSpaceOnUse">
<stop stop-color="#3B59C4"/>
<stop offset="0.792839" stop-color="#141B34"/>
</linearGradient>
</defs>
</svg>
