<svg width="130" height="24" viewBox="0 0 130 24" fill="none" xmlns="http://www.w3.org/2000/svg">
<rect width="22.1519" height="22.1519" rx="4.43038" fill="url(#paint0_linear_25_384)"/>
<path d="M5.04055 10.507C5.04055 9.12175 6.1635 7.9988 7.54872 7.9988L11.7812 7.9988C11.7812 7.9988 12.9957 9.50389 13.7739 10.4683C13.7739 8.73866 13.7739 6.0393 13.7739 6.0393L17.1111 4.8636L17.1111 10.8205L17.1111 14.7802C17.1111 16.1654 15.9881 17.2884 14.6029 17.2884L9.74335 17.2884L7.54871 17.2884C6.16349 17.2884 5.04055 16.1654 5.04055 14.7802L5.04055 10.507ZM8.79842 10.4683C8.31572 10.4683 7.92517 10.8596 7.92517 11.3423L7.92517 13.9179C7.92517 14.4006 8.31647 14.7919 8.79917 14.7919L12.8999 14.7919C13.3826 14.7919 13.7739 14.4015 13.7739 13.9188C13.7739 13.0006 13.7739 11.5428 13.7739 10.4683C12.1935 10.4683 9.99994 10.4683 8.79842 10.4683Z" fill="url(#paint1_linear_25_384)"/>
<path d="M109.225 18.4036H106.85V5.2336H109.225V18.4036Z" fill="black"/>
<path d="M105.228 18.4028H93.7335C91.1226 18.4028 88.9841 16.4279 88.9841 14.0166V0.309998L91.3588 1.9374V5.23278H103.565L105.228 7.42586H91.3588V14.0166C91.3588 15.2452 92.4032 16.2097 93.7335 16.2097H103.565L105.228 18.4028Z" fill="black"/>
<path d="M87.3772 18.0935H73.7135C71.1026 18.0935 68.9641 16.1186 68.9641 13.7074V8.77004C68.9641 6.53102 71.2269 4.92352 73.7508 4.92352H82.603C85.1145 4.92352 87.3772 6.53102 87.3772 8.77004V12.6051H71.3388V13.7074C71.3388 14.9359 72.3832 15.9004 73.7135 15.9004H85.8934L87.3772 18.0935ZM85.0026 10.412V8.77004C85.0026 7.95481 84.0701 7.11661 82.603 7.11661H73.7508C72.2837 7.11661 71.3388 7.95481 71.3388 8.77004V10.412H85.0026Z" fill="black"/>
<path d="M60.373 18.0935H57.6999L49.5315 4.92352H52.217L59.0427 15.9349L65.8559 4.92352H68.5414L60.373 18.0935Z" fill="black"/>
<path d="M48.0469 18.0935H45.6722V4.92352H48.0469V18.0935Z" fill="black"/>
<path d="M43.7297 18.0928H30.0659C27.455 18.0928 25.3165 16.1179 25.3165 13.7066V9.30899C25.3165 6.89774 27.455 4.92281 30.0659 4.92281L38.7506 4.92281L41.2695 7.13688L41.355 3.05176e-05L43.7297 1.62744V18.0928ZM41.355 15.8997L41.2695 7.13688L38.7506 7.13688L30.0659 7.1159C28.7356 7.1159 27.6912 8.0804 27.6912 9.30899V13.7066C27.6912 14.9352 28.7356 15.8997 30.0659 15.8997H41.355Z" fill="black"/>
<path d="M129.372 5.27583L115.708 5.27583C113.097 5.27583 110.959 7.25076 110.959 9.66201L110.959 14.0597C110.959 16.4709 113.097 18.4458 115.708 18.4458L124.393 18.4458L126.912 16.2318L126.997 23.3686L129.372 21.7412L129.372 5.27583ZM126.997 7.46892L126.912 16.2318L124.393 16.2318L115.708 16.2528C114.378 16.2528 113.334 15.2883 113.334 14.0597L113.334 9.66201C113.334 8.43342 114.378 7.46892 115.708 7.46892L126.997 7.46892Z" fill="black"/>
<defs>
<linearGradient id="paint0_linear_25_384" x1="11.0759" y1="0" x2="11.0759" y2="23.5364" gradientUnits="userSpaceOnUse">
<stop stop-color="#0037FF"/>
<stop offset="1" stop-color="#002DD1"/>
</linearGradient>
<linearGradient id="paint1_linear_25_384" x1="5.51083" y1="12.8584" x2="19.6192" y2="9.48803" gradientUnits="userSpaceOnUse">
<stop stop-color="#D8EAFF"/>
<stop offset="1" stop-color="white"/>
</linearGradient>
</defs>
</svg>
